<mxfile host="app.diagrams.net" agent="Mozilla/5.0 (Windows NT 10.0; Win64; x64) AppleWebKit/537.36 (KHTML, like Gecko) Chrome/128.0.0.0 Safari/537.36 OPR/114.0.0.0" version="26.0.4">
  <diagram name="Página-1" id="mwAaLEIT6iA7-zL4VbdZ">
    <mxGraphModel dx="1987" dy="907" grid="1" gridSize="10" guides="1" tooltips="1" connect="1" arrows="1" fold="1" page="1" pageScale="1" pageWidth="827" pageHeight="1169" math="0" shadow="0">
      <root>
        <mxCell id="0" />
        <mxCell id="1" parent="0" />
        <mxCell id="BWEmrhBkmG2nC_ujIj8v-6" style="edgeStyle=orthogonalEdgeStyle;rounded=0;orthogonalLoop=1;jettySize=auto;html=1;exitX=0.5;exitY=1;exitDx=0;exitDy=0;entryX=0.5;entryY=0;entryDx=0;entryDy=0;" edge="1" parent="1" source="BWEmrhBkmG2nC_ujIj8v-1" target="BWEmrhBkmG2nC_ujIj8v-3">
          <mxGeometry relative="1" as="geometry" />
        </mxCell>
        <mxCell id="BWEmrhBkmG2nC_ujIj8v-1" value="Inicio&amp;nbsp;" style="ellipse;whiteSpace=wrap;html=1;" vertex="1" parent="1">
          <mxGeometry x="340" y="70" width="120" height="60" as="geometry" />
        </mxCell>
        <mxCell id="BWEmrhBkmG2nC_ujIj8v-2" value="Fim" style="ellipse;whiteSpace=wrap;html=1;" vertex="1" parent="1">
          <mxGeometry x="340" y="810" width="120" height="60" as="geometry" />
        </mxCell>
        <mxCell id="BWEmrhBkmG2nC_ujIj8v-7" style="edgeStyle=orthogonalEdgeStyle;rounded=0;orthogonalLoop=1;jettySize=auto;html=1;exitX=0.5;exitY=1;exitDx=0;exitDy=0;entryX=0.5;entryY=0;entryDx=0;entryDy=0;" edge="1" parent="1" source="BWEmrhBkmG2nC_ujIj8v-3" target="BWEmrhBkmG2nC_ujIj8v-4">
          <mxGeometry relative="1" as="geometry" />
        </mxCell>
        <mxCell id="BWEmrhBkmG2nC_ujIj8v-3" value="cargo" style="shape=parallelogram;html=1;strokeWidth=2;perimeter=parallelogramPerimeter;whiteSpace=wrap;rounded=1;arcSize=12;size=0.23;" vertex="1" parent="1">
          <mxGeometry x="345" y="160" width="110" height="40" as="geometry" />
        </mxCell>
        <mxCell id="BWEmrhBkmG2nC_ujIj8v-8" style="edgeStyle=orthogonalEdgeStyle;rounded=0;orthogonalLoop=1;jettySize=auto;html=1;exitX=0.5;exitY=1;exitDx=0;exitDy=0;entryX=0.5;entryY=0;entryDx=0;entryDy=0;" edge="1" parent="1" source="BWEmrhBkmG2nC_ujIj8v-4" target="BWEmrhBkmG2nC_ujIj8v-5">
          <mxGeometry relative="1" as="geometry" />
        </mxCell>
        <mxCell id="BWEmrhBkmG2nC_ujIj8v-4" value="departamento" style="shape=parallelogram;html=1;strokeWidth=2;perimeter=parallelogramPerimeter;whiteSpace=wrap;rounded=1;arcSize=12;size=0.23;" vertex="1" parent="1">
          <mxGeometry x="345" y="230" width="110" height="40" as="geometry" />
        </mxCell>
        <mxCell id="BWEmrhBkmG2nC_ujIj8v-5" value="idade" style="shape=parallelogram;html=1;strokeWidth=2;perimeter=parallelogramPerimeter;whiteSpace=wrap;rounded=1;arcSize=12;size=0.23;" vertex="1" parent="1">
          <mxGeometry x="345" y="300" width="110" height="40" as="geometry" />
        </mxCell>
        <mxCell id="BWEmrhBkmG2nC_ujIj8v-9" value="cargo == &quot;Gerente&quot;" style="strokeWidth=2;html=1;shape=mxgraph.flowchart.decision;whiteSpace=wrap;" vertex="1" parent="1">
          <mxGeometry x="325" y="370" width="150" height="60" as="geometry" />
        </mxCell>
        <mxCell id="BWEmrhBkmG2nC_ujIj8v-10" value="departamento == &quot;TIC&quot;" style="strokeWidth=2;html=1;shape=mxgraph.flowchart.decision;whiteSpace=wrap;" vertex="1" parent="1">
          <mxGeometry x="325" y="480" width="150" height="60" as="geometry" />
        </mxCell>
        <mxCell id="BWEmrhBkmG2nC_ujIj8v-11" style="edgeStyle=orthogonalEdgeStyle;rounded=0;orthogonalLoop=1;jettySize=auto;html=1;exitX=0.5;exitY=1;exitDx=0;exitDy=0;entryX=0.5;entryY=0;entryDx=0;entryDy=0;entryPerimeter=0;" edge="1" parent="1" source="BWEmrhBkmG2nC_ujIj8v-5" target="BWEmrhBkmG2nC_ujIj8v-9">
          <mxGeometry relative="1" as="geometry" />
        </mxCell>
        <mxCell id="BWEmrhBkmG2nC_ujIj8v-12" style="edgeStyle=orthogonalEdgeStyle;rounded=0;orthogonalLoop=1;jettySize=auto;html=1;exitX=0.5;exitY=1;exitDx=0;exitDy=0;exitPerimeter=0;entryX=0.5;entryY=0;entryDx=0;entryDy=0;entryPerimeter=0;" edge="1" parent="1" source="BWEmrhBkmG2nC_ujIj8v-9" target="BWEmrhBkmG2nC_ujIj8v-10">
          <mxGeometry relative="1" as="geometry" />
        </mxCell>
        <mxCell id="BWEmrhBkmG2nC_ujIj8v-13" value="V" style="edgeLabel;html=1;align=center;verticalAlign=middle;resizable=0;points=[];" vertex="1" connectable="0" parent="BWEmrhBkmG2nC_ujIj8v-12">
          <mxGeometry x="-0.2667" y="4" relative="1" as="geometry">
            <mxPoint as="offset" />
          </mxGeometry>
        </mxCell>
        <mxCell id="BWEmrhBkmG2nC_ujIj8v-18" style="edgeStyle=orthogonalEdgeStyle;rounded=0;orthogonalLoop=1;jettySize=auto;html=1;exitX=1;exitY=0.5;exitDx=0;exitDy=0;exitPerimeter=0;entryX=1;entryY=0.5;entryDx=0;entryDy=0;" edge="1" parent="1" source="BWEmrhBkmG2nC_ujIj8v-14" target="BWEmrhBkmG2nC_ujIj8v-2">
          <mxGeometry relative="1" as="geometry" />
        </mxCell>
        <mxCell id="BWEmrhBkmG2nC_ujIj8v-14" value="&quot;Você não receberá bonus&quot;" style="strokeWidth=2;html=1;shape=mxgraph.flowchart.display;whiteSpace=wrap;" vertex="1" parent="1">
          <mxGeometry x="640" y="420" width="130" height="70" as="geometry" />
        </mxCell>
        <mxCell id="BWEmrhBkmG2nC_ujIj8v-16" style="edgeStyle=orthogonalEdgeStyle;rounded=0;orthogonalLoop=1;jettySize=auto;html=1;exitX=1;exitY=0.5;exitDx=0;exitDy=0;exitPerimeter=0;entryX=0.5;entryY=0;entryDx=0;entryDy=0;entryPerimeter=0;" edge="1" parent="1" source="BWEmrhBkmG2nC_ujIj8v-9" target="BWEmrhBkmG2nC_ujIj8v-29">
          <mxGeometry relative="1" as="geometry" />
        </mxCell>
        <mxCell id="BWEmrhBkmG2nC_ujIj8v-32" value="F" style="edgeLabel;html=1;align=center;verticalAlign=middle;resizable=0;points=[];" vertex="1" connectable="0" parent="BWEmrhBkmG2nC_ujIj8v-16">
          <mxGeometry x="-0.5867" y="3" relative="1" as="geometry">
            <mxPoint y="-7" as="offset" />
          </mxGeometry>
        </mxCell>
        <mxCell id="BWEmrhBkmG2nC_ujIj8v-17" style="edgeStyle=orthogonalEdgeStyle;rounded=0;orthogonalLoop=1;jettySize=auto;html=1;exitX=1;exitY=0.5;exitDx=0;exitDy=0;exitPerimeter=0;entryX=0.5;entryY=1;entryDx=0;entryDy=0;entryPerimeter=0;" edge="1" parent="1" source="BWEmrhBkmG2nC_ujIj8v-10" target="BWEmrhBkmG2nC_ujIj8v-29">
          <mxGeometry relative="1" as="geometry" />
        </mxCell>
        <mxCell id="BWEmrhBkmG2nC_ujIj8v-33" value="F" style="edgeLabel;html=1;align=center;verticalAlign=middle;resizable=0;points=[];" vertex="1" connectable="0" parent="BWEmrhBkmG2nC_ujIj8v-17">
          <mxGeometry x="-0.5333" y="3" relative="1" as="geometry">
            <mxPoint y="13" as="offset" />
          </mxGeometry>
        </mxCell>
        <mxCell id="BWEmrhBkmG2nC_ujIj8v-19" value="idade &amp;gt;= 60" style="strokeWidth=2;html=1;shape=mxgraph.flowchart.decision;whiteSpace=wrap;" vertex="1" parent="1">
          <mxGeometry x="325" y="580" width="150" height="60" as="geometry" />
        </mxCell>
        <mxCell id="BWEmrhBkmG2nC_ujIj8v-20" style="edgeStyle=orthogonalEdgeStyle;rounded=0;orthogonalLoop=1;jettySize=auto;html=1;exitX=0.5;exitY=1;exitDx=0;exitDy=0;exitPerimeter=0;entryX=0.5;entryY=0;entryDx=0;entryDy=0;entryPerimeter=0;" edge="1" parent="1" source="BWEmrhBkmG2nC_ujIj8v-10" target="BWEmrhBkmG2nC_ujIj8v-19">
          <mxGeometry relative="1" as="geometry" />
        </mxCell>
        <mxCell id="BWEmrhBkmG2nC_ujIj8v-21" value="V" style="edgeLabel;html=1;align=center;verticalAlign=middle;resizable=0;points=[];" vertex="1" connectable="0" parent="BWEmrhBkmG2nC_ujIj8v-20">
          <mxGeometry x="-0.3" y="9" relative="1" as="geometry">
            <mxPoint as="offset" />
          </mxGeometry>
        </mxCell>
        <mxCell id="BWEmrhBkmG2nC_ujIj8v-22" value="&quot;Você receberá bonus&quot;" style="strokeWidth=2;html=1;shape=mxgraph.flowchart.display;whiteSpace=wrap;" vertex="1" parent="1">
          <mxGeometry x="480" y="650" width="130" height="70" as="geometry" />
        </mxCell>
        <mxCell id="BWEmrhBkmG2nC_ujIj8v-23" value="&quot;Você receberá bonus&lt;div&gt;plus&quot;&lt;/div&gt;" style="strokeWidth=2;html=1;shape=mxgraph.flowchart.display;whiteSpace=wrap;" vertex="1" parent="1">
          <mxGeometry x="205" y="650" width="130" height="70" as="geometry" />
        </mxCell>
        <mxCell id="BWEmrhBkmG2nC_ujIj8v-24" style="edgeStyle=orthogonalEdgeStyle;rounded=0;orthogonalLoop=1;jettySize=auto;html=1;exitX=0;exitY=0.5;exitDx=0;exitDy=0;exitPerimeter=0;entryX=0.5;entryY=0;entryDx=0;entryDy=0;entryPerimeter=0;" edge="1" parent="1" source="BWEmrhBkmG2nC_ujIj8v-19" target="BWEmrhBkmG2nC_ujIj8v-23">
          <mxGeometry relative="1" as="geometry" />
        </mxCell>
        <mxCell id="BWEmrhBkmG2nC_ujIj8v-28" value="V" style="edgeLabel;html=1;align=center;verticalAlign=middle;resizable=0;points=[];" vertex="1" connectable="0" parent="BWEmrhBkmG2nC_ujIj8v-24">
          <mxGeometry x="0.2842" y="-1" relative="1" as="geometry">
            <mxPoint x="-9" as="offset" />
          </mxGeometry>
        </mxCell>
        <mxCell id="BWEmrhBkmG2nC_ujIj8v-25" style="edgeStyle=orthogonalEdgeStyle;rounded=0;orthogonalLoop=1;jettySize=auto;html=1;exitX=1;exitY=0.5;exitDx=0;exitDy=0;exitPerimeter=0;entryX=0.5;entryY=0;entryDx=0;entryDy=0;entryPerimeter=0;" edge="1" parent="1" source="BWEmrhBkmG2nC_ujIj8v-19" target="BWEmrhBkmG2nC_ujIj8v-22">
          <mxGeometry relative="1" as="geometry" />
        </mxCell>
        <mxCell id="BWEmrhBkmG2nC_ujIj8v-27" value="F" style="edgeLabel;html=1;align=center;verticalAlign=middle;resizable=0;points=[];" vertex="1" connectable="0" parent="BWEmrhBkmG2nC_ujIj8v-25">
          <mxGeometry x="0.3818" y="3" relative="1" as="geometry">
            <mxPoint x="2" y="4" as="offset" />
          </mxGeometry>
        </mxCell>
        <mxCell id="BWEmrhBkmG2nC_ujIj8v-29" value="" style="verticalLabelPosition=bottom;verticalAlign=top;html=1;shape=mxgraph.flowchart.on-page_reference;" vertex="1" parent="1">
          <mxGeometry x="570" y="445" width="20" height="20" as="geometry" />
        </mxCell>
        <mxCell id="BWEmrhBkmG2nC_ujIj8v-31" style="edgeStyle=orthogonalEdgeStyle;rounded=0;orthogonalLoop=1;jettySize=auto;html=1;exitX=1;exitY=0.5;exitDx=0;exitDy=0;exitPerimeter=0;entryX=0;entryY=0.5;entryDx=0;entryDy=0;entryPerimeter=0;" edge="1" parent="1" source="BWEmrhBkmG2nC_ujIj8v-29" target="BWEmrhBkmG2nC_ujIj8v-14">
          <mxGeometry relative="1" as="geometry" />
        </mxCell>
        <mxCell id="BWEmrhBkmG2nC_ujIj8v-39" style="edgeStyle=orthogonalEdgeStyle;rounded=0;orthogonalLoop=1;jettySize=auto;html=1;exitX=0.5;exitY=1;exitDx=0;exitDy=0;exitPerimeter=0;entryX=0.5;entryY=0;entryDx=0;entryDy=0;" edge="1" parent="1" source="BWEmrhBkmG2nC_ujIj8v-34" target="BWEmrhBkmG2nC_ujIj8v-2">
          <mxGeometry relative="1" as="geometry" />
        </mxCell>
        <mxCell id="BWEmrhBkmG2nC_ujIj8v-34" value="" style="verticalLabelPosition=bottom;verticalAlign=top;html=1;shape=mxgraph.flowchart.on-page_reference;" vertex="1" parent="1">
          <mxGeometry x="390" y="760" width="20" height="20" as="geometry" />
        </mxCell>
        <mxCell id="BWEmrhBkmG2nC_ujIj8v-35" style="edgeStyle=orthogonalEdgeStyle;rounded=0;orthogonalLoop=1;jettySize=auto;html=1;exitX=0.5;exitY=1;exitDx=0;exitDy=0;exitPerimeter=0;entryX=0;entryY=0.5;entryDx=0;entryDy=0;entryPerimeter=0;" edge="1" parent="1" source="BWEmrhBkmG2nC_ujIj8v-23" target="BWEmrhBkmG2nC_ujIj8v-34">
          <mxGeometry relative="1" as="geometry" />
        </mxCell>
        <mxCell id="BWEmrhBkmG2nC_ujIj8v-36" style="edgeStyle=orthogonalEdgeStyle;rounded=0;orthogonalLoop=1;jettySize=auto;html=1;exitX=0.5;exitY=1;exitDx=0;exitDy=0;exitPerimeter=0;entryX=1;entryY=0.5;entryDx=0;entryDy=0;entryPerimeter=0;" edge="1" parent="1" source="BWEmrhBkmG2nC_ujIj8v-22" target="BWEmrhBkmG2nC_ujIj8v-34">
          <mxGeometry relative="1" as="geometry" />
        </mxCell>
      </root>
    </mxGraphModel>
  </diagram>
</mxfile>
